<?xml version="1.0" encoding="UTF-8"?>
<svg version="1.1" xmlns="http://www.w3.org/2000/svg" width="512" height="512">
<path d="M0 0 C1.01790619 0.00215515 2.03581238 0.0043103 3.08456421 0.00653076 C17.69363523 0.05620146 32.02575853 0.30709809 46.375 3.3125 C47.34985352 3.51117676 48.32470703 3.70985352 49.32910156 3.91455078 C97.7109774 14.03517194 141.69928269 35.9516877 177.375 70.3125 C178.3640332 71.26068604 178.3640332 71.26068604 179.37304688 72.22802734 C188.86130305 81.37247479 197.6012044 90.66984009 205.375 101.3125 C206.23306152 102.46355017 207.09113451 103.61459177 207.94921875 104.765625 C213.98736829 112.95680614 219.34595521 121.47054105 224.375 130.3125 C224.73948242 130.94430176 225.10396484 131.57610352 225.47949219 132.22705078 C247.08534998 169.97532572 256.85198095 212.74189997 256.6875 255.9375 C256.68534485 256.95540619 256.6831897 257.97331238 256.68096924 259.02206421 C256.63129854 273.63113523 256.38040191 287.96325853 253.375 302.3125 C253.07698486 303.77478027 253.07698486 303.77478027 252.77294922 305.26660156 C242.65232806 353.6484774 220.7358123 397.63678269 186.375 433.3125 C185.74287598 433.97185547 185.11075195 434.63121094 184.45947266 435.31054688 C175.31502521 444.79880305 166.01765991 453.5387044 155.375 461.3125 C154.22394983 462.17056152 153.07290823 463.02863451 151.921875 463.88671875 C143.73224019 469.92427396 135.22961724 475.30707302 126.375 480.3125 C125.66778809 480.7146875 124.96057617 481.116875 124.23193359 481.53125 C101.09654164 494.5566741 75.92537591 503.30551461 49.9375 508.625 C49.21860596 508.77235596 48.49971191 508.91971191 47.7590332 509.0715332 C33.08339502 511.86090125 18.55831162 512.66142619 3.64770508 512.62817383 C0.70811513 512.6250221 -2.2304558 512.64854926 -5.16992188 512.67382812 C-18.54306192 512.71848737 -31.43916711 511.51301542 -44.625 509.3125 C-46.33055054 509.03031616 -46.33055054 509.03031616 -48.07055664 508.74243164 C-91.33802759 500.97044532 -132.38793216 480.98345309 -165.625 452.3125 C-166.37007813 451.67828125 -167.11515625 451.0440625 -167.8828125 450.390625 C-181.38779833 438.57948485 -194.05918743 425.82889772 -204.625 411.3125 C-205.48149066 410.16255169 -206.33826433 409.01281411 -207.1953125 407.86328125 C-213.23534209 399.67315742 -218.61867614 391.16870382 -223.625 382.3125 C-224.0271875 381.60528809 -224.429375 380.89807617 -224.84375 380.16943359 C-237.8691741 357.03404164 -246.61801461 331.86287591 -251.9375 305.875 C-252.08485596 305.15610596 -252.23221191 304.43721191 -252.3840332 303.6965332 C-255.35789088 288.05024391 -255.99800362 272.57681954 -255.9375 256.6875 C-255.93534485 255.66959381 -255.9331897 254.65168762 -255.93096924 253.60293579 C-255.88129854 238.99386477 -255.63040191 224.66174147 -252.625 210.3125 C-252.42632324 209.33764648 -252.22764648 208.36279297 -252.02294922 207.35839844 C-241.90232806 158.9765226 -219.9858123 114.98821731 -185.625 79.3125 C-184.99287598 78.65314453 -184.36075195 77.99378906 -183.70947266 77.31445312 C-174.56502521 67.82619695 -165.26765991 59.0862956 -154.625 51.3125 C-153.47394983 50.45443848 -152.32290823 49.59636549 -151.171875 48.73828125 C-142.98224019 42.70072604 -134.47961724 37.31792698 -125.625 32.3125 C-124.91778809 31.9103125 -124.21057617 31.508125 -123.48193359 31.09375 C-100.34654164 18.0683259 -75.17537591 9.31948539 -49.1875 4 C-48.46860596 3.85264404 -47.74971191 3.70528809 -47.0090332 3.5534668 C-31.36274391 0.57960912 -15.88931954 -0.06050362 0 0 Z " fill="#5F97FA" transform="translate(255.625,-0.3125)"/>
<path d="M0 0 C2.93867656 1.33240879 5.07746177 2.8032499 7.40182495 5.03346252 C8.05495667 5.65638687 8.70808838 6.27931122 9.38101196 6.92111206 C10.08656219 7.60400299 10.79211243 8.28689392 11.51904297 8.99047852 C12.27076782 9.71139175 13.02249268 10.43230499 13.79699707 11.17506409 C20.75223055 17.8630511 27.64815545 24.61279524 34.52746391 31.37876987 C39.13902663 35.91393763 43.76683965 40.42891265 48.44189453 44.89868164 C52.97659847 49.2349311 57.46116008 53.61783785 61.9162941 58.03574944 C63.60857707 59.69831336 65.31703049 61.34460611 67.04259872 62.97259712 C80.50461354 75.70990252 85.2397252 86.79133038 88 105 C88.48470664 107.69816362 88.98907228 110.39204578 89.49533653 113.08622551 C94.20906551 139.17469411 93.42273527 171.1092406 88 197 C87.70198486 198.46228027 87.70198486 198.46228027 87.39794922 199.95410156 C77.27732806 248.3359774 55.3608123 292.32428269 21 328 C20.36787598 328.65935547 19.73575195 329.31871094 19.08447266 329.99804688 C9.94002521 339.48630305 0.64265991 348.2262044 -10 356 C-11.15105017 356.85806152 -12.30209177 357.71613451 -13.453125 358.57421875 C-21.64275981 364.61177396 -30.14538276 369.99457302 -39 375 C-39.70721191 375.4021875 -40.41442383 375.804375 -41.14306641 376.21875 C-71.69149147 393.41777533 -106.95048411 404.48244685 -142 407 C-142.81765744 407.10328613 -143.63531488 407.20657227 -144.47774982 407.31298828 C-148.61001563 407.63567973 -151.75999015 407.72559899 -155.404562 405.59295654 C-157.86457148 403.48716315 -160.09410168 401.26740715 -162.3269043 398.921875 C-163.61678505 397.63440369 -163.61678505 397.63440369 -164.932724 396.32092285 C-167.27113371 393.97618846 -169.58254099 391.60987254 -171.88509345 389.23023987 C-174.30216611 386.74411352 -176.75070953 384.28937532 -179.19599915 381.83105469 C-183.81505787 377.17789009 -188.40537581 372.49742184 -192.98587781 367.80633163 C-198.20472725 362.46426659 -203.45507886 357.15363282 -208.70823038 351.84532928 C-219.50743455 340.93133662 -230.26666035 329.97879715 -241 319 C-240.04069284 317.86934019 -239.07976519 316.74005513 -238.1181488 315.61135864 C-237.58320518 314.98234209 -237.04826155 314.35332554 -236.49710751 313.70524788 C-234.95230138 311.94566992 -233.3466018 310.41221342 -231.53515625 308.9296875 C-230.96345703 308.424375 -230.39175781 307.9190625 -229.80273438 307.3984375 C-228.63840469 306.37915899 -227.45010415 305.38665861 -226.24023438 304.421875 C-223.469515 301.89553751 -222.11705025 300.11697342 -221.71972656 296.32543945 C-222.3147037 285.7911864 -224.99049441 275.27893978 -227.13964844 264.96850586 C-227.63401599 262.58325359 -228.11810959 260.19607798 -228.6015625 257.80859375 C-228.83427353 256.71954994 -228.83427353 256.71954994 -229.07168579 255.60850525 C-230.3755037 249.1510938 -230.3755037 249.1510938 -229 246 C-227.0234375 244.1328125 -227.0234375 244.1328125 -224.375 242.125 C-219.45974972 238.25432051 -214.86040631 234.17046546 -210.3125 229.875 C-209.01839402 228.65607496 -207.7241283 227.43731948 -206.4296875 226.21875 C-205.82995117 225.65414062 -205.23021484 225.08953125 -204.61230469 224.5078125 C-201.0117429 221.14060027 -197.27975015 217.93545213 -193.52246094 214.74560547 C-186.37977988 208.67959403 -179.33931241 202.54263174 -172.48046875 196.15625 C-169.02286368 192.93710045 -165.51970949 189.78755757 -161.9453125 186.69921875 C-159.6633471 184.70593572 -157.42771426 182.66506973 -155.1875 180.625 C-150.76812478 176.62846624 -146.20050973 172.8556503 -141.54296875 169.140625 C-138.89420144 166.98168261 -138.89420144 166.98168261 -136.30078125 164.234375 C-134 162 -134 162 -132 162 C-124.81343244 176.26119481 -117.72441295 190.55745427 -110.8671875 204.98046875 C-107.66820261 211.70863465 -104.42912211 218.41730065 -101.1875 225.125 C-100.59398052 226.35359042 -100.0004747 227.58218745 -99.40698242 228.81079102 C-97.90591138 231.91790649 -96.40444236 235.02482949 -94.90289307 238.13171387 C-92.2260414 243.67071403 -89.55026595 249.21023382 -86.875 254.75 C-86.58695496 255.34638275 -86.29890991 255.9427655 -86.00213623 256.55722046 C-81.25681944 266.38308652 -76.52955146 276.21753037 -71.81787109 286.05957031 C-71.35848145 287.01831055 -70.8990918 287.97705078 -70.42578125 288.96484375 C-69.792771 290.28718018 -69.792771 290.28718018 -69.14697266 291.63623047 C-68.18034996 293.62832092 -67.1843234 295.59947851 -66.16796875 297.56640625 C-65 300 -65 300 -65 302 C-58.51476755 296.41048576 -52.15568466 290.69779626 -45.9375 284.8125 C-44.96361328 283.94302734 -43.98972656 283.07355469 -42.98632812 282.17773438 C-37.90714259 277.44730052 -37.90714259 277.44730052 -35.5246582 271.14868164 C-35.74968406 267.99648597 -36.30519251 265.08215558 -37 262 C-37.35755887 259.71597437 -37.70753698 257.43075189 -38.05078125 255.14453125 C-38.46668592 252.6997221 -38.88743709 250.25573352 -39.3125 247.8125 C-39.65179568 245.82669512 -39.98915778 243.84056771 -40.32641602 241.85441589 C-40.55389185 240.51530232 -40.78191814 239.17628213 -41.01049805 237.83735657 C-42.09075922 231.50235886 -43.11585623 225.15915726 -44.125 218.8125 C-44.28846924 217.78616455 -44.45193848 216.7598291 -44.62036133 215.70239258 C-45.70759269 208.86403278 -46.7872667 202.02447294 -47.86474609 195.18457031 C-48.81725155 189.14238909 -49.78215999 183.10224206 -50.75 177.0625 C-51.38380153 173.10331903 -52.01725384 169.14408226 -52.6505127 165.18481445 C-52.90037662 163.62279398 -53.15030216 162.06078337 -53.40026855 160.4987793 C-54.31970368 154.75289596 -55.23772847 149.00678939 -56.15441895 143.26046753 C-56.46447377 141.31812084 -56.77492945 139.3758381 -57.08581543 137.43362427 C-58.49286977 128.64181324 -59.89698102 119.84924827 -61.2109375 111.04296875 C-61.3661084 110.00551514 -61.5212793 108.96806152 -61.68115234 107.89916992 C-62.5705851 99.81186976 -62.5705851 99.81186976 -60.53125 96.91015625 C-59.8609375 96.30042969 -59.190625 95.69070312 -58.5 95.0625 C-57.76523437 94.381875 -57.03046875 93.70125 -56.2734375 93 C-55.52320313 92.34 -54.77296875 91.68 -54 91 C-53.35289062 90.4225 -52.70578125 89.845 -52.0390625 89.25 C-50.74382347 88.10807498 -49.44149493 86.97414956 -48.1328125 85.84765625 C-44.857743 83.01046235 -41.65595214 80.09286056 -38.44140625 77.1875 C-36.29503788 75.26435394 -34.12363558 73.37755581 -31.9375 71.5 C-17.83279954 59.09125551 -0.44455961 39.77903318 1.16748047 19.9387207 C1.23124578 17.74672634 1.22430019 15.56751645 1.1875 13.375 C1.18685547 12.63765625 1.18621094 11.9003125 1.18554688 11.140625 C1.15465535 7.31007565 0.91977114 3.72323357 0 0 Z " fill="#5688E1" transform="translate(421,105)"/>
<path d="M0 0 C0.76441406 -0.02449219 1.52882813 -0.04898438 2.31640625 -0.07421875 C10.48026042 -0.11580035 16.53782394 3.2807261 22.51953125 8.66015625 C29.57895696 16.20051607 30.66120564 23.85384348 30.4609375 33.8203125 C29.24797179 57.76886683 8.60492405 78.19023911 -8.05859375 93.36328125 C-9.32634342 94.47288106 -10.60083887 95.57483356 -11.8828125 96.66796875 C-14.25081718 98.69702374 -16.56202022 100.78347573 -18.875 102.875 C-22.67822002 106.30789102 -26.51212323 109.70143307 -30.37890625 113.0625 C-31.23152941 113.81049316 -32.07298378 114.57298378 -32.875 115.375 C-32.95885025 127.34881505 -30.66995059 139.00566376 -28.52685547 150.73193359 C-27.34607961 157.33101126 -26.24775088 163.9439685 -25.14682007 170.5567627 C-24.76040267 172.87508877 -24.37120819 175.19293548 -23.98168945 177.51074219 C-22.67744542 185.30634026 -21.46970636 193.1049207 -20.37548828 200.93334961 C-19.47908241 207.09756108 -18.4195249 213.23445968 -17.375 219.375 C-16.14164575 226.62562799 -14.92636701 233.87102839 -13.9140625 241.15625 C-13.15375978 246.59004331 -12.28873989 251.99808532 -11.3671875 257.40625 C-11.23560242 258.18000977 -11.10401733 258.95376953 -10.96844482 259.75097656 C-10.42513683 262.93807553 -9.87979611 266.12479957 -9.32861328 269.31054688 C-8.92039805 271.67505144 -8.51836129 274.04054203 -8.1171875 276.40625 C-7.99221893 277.11881958 -7.86725037 277.83138916 -7.73849487 278.56555176 C-7.41343833 280.49613476 -7.14246025 282.43559868 -6.875 284.375 C-6.64925293 285.89891357 -6.64925293 285.89891357 -6.41894531 287.45361328 C-7.11509355 291.91298683 -9.75298974 294.03864453 -12.9296875 297.0859375 C-13.54643341 297.69893707 -14.16317932 298.31193665 -14.7986145 298.94351196 C-16.10145065 300.23292933 -17.41145022 301.51514354 -18.72802734 302.79052734 C-20.74986228 304.74986654 -22.74939104 306.72992969 -24.74609375 308.71484375 C-26.01438464 309.96480147 -27.28387553 311.21354301 -28.5546875 312.4609375 C-29.15683075 313.05458099 -29.758974 313.64822449 -30.37936401 314.25985718 C-34.6406093 318.375 -34.6406093 318.375 -36.875 318.375 C-44.88631102 302.46685042 -52.77520179 286.51565591 -60.41943359 270.42724609 C-63.15471061 264.69151424 -65.92241807 258.97140572 -68.6875 253.25 C-69.28110366 252.02124817 -69.87469085 250.79248838 -70.46826172 249.5637207 C-71.9692487 246.45676669 -73.47063682 243.35000668 -74.97210693 240.24328613 C-76.46734877 237.14929893 -77.9622612 234.05515265 -79.45703125 230.9609375 C-79.75104324 230.35233383 -80.04505524 229.74373016 -80.34797668 229.11668396 C-82.38720859 224.89495572 -84.42434675 220.67222174 -86.4609375 216.44921875 C-88.17810725 212.8885734 -89.89655322 209.32857949 -91.62207031 205.77197266 C-93.29261218 202.32854348 -94.95904413 198.88314966 -96.625 195.4375 C-97.12660645 194.4072168 -97.62821289 193.37693359 -98.14501953 192.31542969 C-100.35558263 187.73415123 -102.44877149 183.27558751 -103.875 178.375 C-111.47472937 184.37723524 -118.59475823 190.74668555 -125.65234375 197.3671875 C-128.69294331 200.2172557 -131.79848424 202.97988811 -134.953125 205.703125 C-137.28605074 207.73258073 -139.58011245 209.802647 -141.875 211.875 C-147.19834693 216.67407792 -152.56363339 221.4157795 -158.02734375 226.0546875 C-165.16098439 232.11938508 -172.1282782 238.31892107 -178.984375 244.6953125 C-181.3021898 246.84398946 -183.62999351 248.97188452 -186 251.0625 C-186.598125 251.60132813 -187.19625 252.14015625 -187.8125 252.6953125 C-189.875 254.375 -189.875 254.375 -192.875 256.3046875 C-196.06260367 258.480227 -198.44349009 260.37508169 -200.875 263.375 C-201.1466047 266.41599199 -201.1466047 266.41599199 -200.375 269.65234375 C-200.0349292 271.50557251 -200.0349292 271.50557251 -199.68798828 273.39624023 C-199.55507385 274.04664276 -199.42215942 274.69704529 -199.28521729 275.36715698 C-198.87420216 277.3789051 -198.49694896 279.39437631 -198.12841797 281.41430664 C-197.23175569 286.28987606 -196.28441374 291.15524894 -195.32861328 296.01953125 C-194.92002169 298.10587522 -194.51825009 300.19344766 -194.1171875 302.28125 C-193.8785498 303.50134766 -193.63991211 304.72144531 -193.39404297 305.97851562 C-192.1212363 314.30743676 -192.1212363 314.30743676 -194.58740234 317.80029297 C-195.76230225 318.94715576 -195.76230225 318.94715576 -196.9609375 320.1171875 C-197.80914062 320.95507812 -198.65734375 321.79296875 -199.53125 322.65625 C-200.4284375 323.5121875 -201.325625 324.368125 -202.25 325.25 C-203.58417969 326.56871094 -203.58417969 326.56871094 -204.9453125 327.9140625 C-211.56677019 334.375 -211.56677019 334.375 -213.875 334.375 C-214.22578613 333.74335938 -214.57657227 333.11171875 -214.93798828 332.4609375 C-222.77917362 318.35848819 -230.74715997 304.3463393 -238.9140625 290.4296875 C-239.42356445 289.55924805 -239.93306641 288.68880859 -240.45800781 287.79199219 C-241.35385445 286.2639285 -242.25373079 284.73821386 -243.15917969 283.21582031 C-245.875 278.59583151 -245.875 278.59583151 -245.875 276.375 C-246.58551514 276.10655273 -247.29603027 275.83810547 -248.02807617 275.56152344 C-250.95565513 274.34138505 -253.65343329 272.93032311 -256.42578125 271.390625 C-258.04625366 270.49174561 -258.04625366 270.49174561 -259.69946289 269.57470703 C-260.85051514 268.93130371 -262.00156738 268.28790039 -263.1875 267.625 C-263.77626923 267.29707458 -264.36503845 266.96914917 -264.97164917 266.63128662 C-276.70217288 260.09705315 -288.30942955 253.36055249 -299.87329102 246.53564453 C-301.18470571 245.77525113 -302.51912195 245.05293903 -303.875 244.375 C-301.58157697 239.18810091 -297.61067709 235.62445188 -293.6875 231.625 C-292.94435547 230.83222656 -292.20121094 230.03945313 -291.43554688 229.22265625 C-290.70013672 228.47371094 -289.96472656 227.72476563 -289.20703125 226.953125 C-288.54421143 226.26637695 -287.8813916 225.57962891 -287.19848633 224.87207031 C-281.68129345 221.31722879 -274.17679355 223.909025 -268.109375 225.125 C-267.19416077 225.30256836 -266.27894653 225.48013672 -265.33599854 225.66308594 C-262.43109371 226.22758579 -259.52799374 226.80076028 -256.625 227.375 C-253.70749107 227.94792762 -250.78963904 228.51897527 -247.87115479 229.08691406 C-246.05977735 229.43983023 -244.24900008 229.79584399 -242.43890381 230.15527344 C-241.62085266 230.31543945 -240.80280151 230.47560547 -239.95996094 230.640625 C-239.24161072 230.78274414 -238.5232605 230.92486328 -237.78314209 231.07128906 C-235.70324244 231.45359359 -235.70324244 231.45359359 -232.875 231.375 C-231.27214921 229.95239329 -231.27214921 229.95239329 -229.75 228 C-227.06315293 224.78820171 -224.32733988 221.65181367 -221.5 218.5625 C-218.44641133 215.18559018 -215.53070795 211.74282868 -212.6875 208.1875 C-207.78095269 202.11683338 -202.44299383 196.48431085 -197.09375 190.8046875 C-193.14183983 186.60691078 -189.35154227 182.29209495 -185.62060547 177.89746094 C-179.08574807 170.20271743 -172.43346572 162.66220933 -165.55859375 155.26953125 C-159.33364798 148.55528843 -153.54548646 141.56252569 -147.875 134.375 C-148.66656494 134.14031006 -149.45812988 133.90562012 -150.27368164 133.66381836 C-154.86133559 132.02201609 -159.13354291 129.91443305 -163.49609375 127.75390625 C-164.42408279 127.29822769 -165.35207184 126.84254913 -166.30818176 126.37306213 C-168.28726806 125.40082633 -170.26553303 124.42691713 -172.24304199 123.45147705 C-177.3810206 120.91722453 -182.5249398 118.39507661 -187.66796875 115.87109375 C-188.66659943 115.38056519 -189.6652301 114.89003662 -190.69412231 114.38464355 C-197.48592928 111.05010262 -204.29066536 107.7466526 -211.125 104.5 C-220.18906072 100.19149926 -229.22220664 95.82133103 -238.25 91.4375 C-249.47245171 85.98801217 -260.7047421 80.56052689 -271.96044922 75.17993164 C-277.2917748 72.62854445 -282.59728238 70.03561619 -287.875 67.375 C-283.19549353 56.38854946 -270.14286489 43.32943028 -259.875 37.375 C-252.19580146 35.21119967 -244.98531315 37.16323417 -237.55859375 39.52832031 C-233.96386375 40.66246548 -230.3988042 41.28572137 -226.6875 41.9375 C-225.53378906 42.18628906 -224.38007813 42.43507812 -223.19140625 42.69140625 C-218.68080275 43.62115373 -214.14725552 44.23508865 -209.5859375 44.859375 C-194.29493855 46.98401906 -179.07813496 49.65979594 -163.85498047 52.21777344 C-152.88229986 54.05882822 -141.89610607 55.78498711 -130.88989258 57.41455078 C-121.09284645 58.86557389 -111.31297617 60.41151423 -101.54003906 62.01708984 C-95.66063585 62.97227902 -89.80118097 63.77192032 -83.875 64.375 C-83.59809326 63.7759082 -83.32118652 63.17681641 -83.03588867 62.55957031 C-81.29580553 59.28506686 -78.7238352 56.79130448 -76.1875 54.125 C-75.09298673 52.95774649 -73.99923255 51.78978071 -72.90625 50.62109375 C-72.11734375 49.77973877 -72.11734375 49.77973877 -71.3125 48.92138672 C-69.5658527 47.04243563 -67.8680571 45.12568968 -66.1875 43.1875 C-62.14385996 38.52703352 -58.04993555 33.91852069 -53.875 29.375 C-53.18792969 28.62089844 -52.50085938 27.86679688 -51.79296875 27.08984375 C-38.84642171 13.47074881 -19.29952344 0.03221957 0 0 Z " fill="#E7F0F0" transform="translate(392.875,88.625)"/>
<path d="M0 0 C5.4779414 4.86928125 8.60136317 9.40488638 9.421875 16.8046875 C10.39291528 36.52340002 0.71417355 53.4941288 -12.06640625 67.828125 C-18.66494962 75.03785039 -25.56761262 81.94873193 -33.0078125 88.29296875 C-35.37581718 90.32202374 -37.68702022 92.40847573 -40 94.5 C-43.80322002 97.93289102 -47.63712323 101.32643307 -51.50390625 104.6875 C-52.35652941 105.43549316 -53.19798378 106.19798378 -54 107 C-54.08385025 118.97381505 -51.79495059 130.63066376 -49.65185547 142.35693359 C-48.47107961 148.95601126 -47.37275088 155.5689685 -46.27182007 162.1817627 C-45.88540267 164.50008877 -45.49620819 166.81793548 -45.10668945 169.13574219 C-43.80244542 176.93134026 -42.59470636 184.7299207 -41.50048828 192.55834961 C-40.60408241 198.72256108 -39.5445249 204.85945968 -38.5 211 C-37.26664575 218.25062799 -36.05136701 225.49602839 -35.0390625 232.78125 C-34.27875978 238.21504331 -33.41373989 243.62308532 -32.4921875 249.03125 C-32.36060242 249.80500977 -32.22901733 250.57876953 -32.09344482 251.37597656 C-31.55013683 254.56307553 -31.00479611 257.74979957 -30.45361328 260.93554688 C-30.04539805 263.30005144 -29.64336129 265.66554203 -29.2421875 268.03125 C-29.11721893 268.74381958 -28.99225037 269.45638916 -28.86349487 270.19055176 C-28.53843833 272.12113476 -28.26746025 274.06059868 -28 276 C-27.84950195 277.01594238 -27.69900391 278.03188477 -27.54394531 279.07861328 C-28.24009355 283.53798683 -30.87798974 285.66364453 -34.0546875 288.7109375 C-34.67143341 289.32393707 -35.28817932 289.93693665 -35.9236145 290.56851196 C-37.22645065 291.85792933 -38.53645022 293.14014354 -39.85302734 294.41552734 C-41.87486228 296.37486654 -43.87439104 298.35492969 -45.87109375 300.33984375 C-47.13938464 301.58980147 -48.40887553 302.83854301 -49.6796875 304.0859375 C-50.28183075 304.67958099 -50.883974 305.27322449 -51.50436401 305.88485718 C-55.7656093 310 -55.7656093 310 -58 310 C-66.01131102 294.09185042 -73.90020179 278.14065591 -81.54443359 262.05224609 C-84.27971061 256.31651424 -87.04741807 250.59640572 -89.8125 244.875 C-90.40610366 243.64624817 -90.99969085 242.41748838 -91.59326172 241.1887207 C-93.0942487 238.08176669 -94.59563682 234.97500668 -96.09710693 231.86828613 C-97.59234877 228.77429893 -99.0872612 225.68015265 -100.58203125 222.5859375 C-100.87604324 221.97733383 -101.17005524 221.36873016 -101.47297668 220.74168396 C-103.51220859 216.51995572 -105.54934675 212.29722174 -107.5859375 208.07421875 C-109.30310725 204.5135734 -111.02155322 200.95357949 -112.74707031 197.39697266 C-114.41761218 193.95354348 -116.08404413 190.50814966 -117.75 187.0625 C-118.25160645 186.0322168 -118.75321289 185.00193359 -119.27001953 183.94042969 C-121.48058263 179.35915123 -123.57377149 174.90058751 -125 170 C-132.59972937 176.00223524 -139.71975823 182.37168555 -146.77734375 188.9921875 C-149.81794331 191.8422557 -152.92348424 194.60488811 -156.078125 197.328125 C-158.41105074 199.35758073 -160.70511245 201.427647 -163 203.5 C-168.32334693 208.29907792 -173.68863339 213.0407795 -179.15234375 217.6796875 C-186.28598439 223.74438508 -193.2532782 229.94392107 -200.109375 236.3203125 C-202.4271898 238.46898946 -204.75499351 240.59688452 -207.125 242.6875 C-207.723125 243.22632813 -208.32125 243.76515625 -208.9375 244.3203125 C-211 246 -211 246 -214 247.9296875 C-217.18760367 250.105227 -219.56849009 252.00008169 -222 255 C-222.2716047 258.04099199 -222.2716047 258.04099199 -221.5 261.27734375 C-221.1599292 263.13057251 -221.1599292 263.13057251 -220.81298828 265.02124023 C-220.68007385 265.67164276 -220.54715942 266.32204529 -220.41021729 266.99215698 C-219.99920216 269.0039051 -219.62194896 271.01937631 -219.25341797 273.03930664 C-218.35675569 277.91487606 -217.40941374 282.78024894 -216.45361328 287.64453125 C-216.04502169 289.73087522 -215.64325009 291.81844766 -215.2421875 293.90625 C-215.0035498 295.12634766 -214.76491211 296.34644531 -214.51904297 297.60351562 C-213.2462363 305.93243676 -213.2462363 305.93243676 -215.71240234 309.42529297 C-216.49566895 310.18986816 -217.27893555 310.95444336 -218.0859375 311.7421875 C-218.93414062 312.58007812 -219.78234375 313.41796875 -220.65625 314.28125 C-221.5534375 315.1371875 -222.450625 315.993125 -223.375 316.875 C-224.26445312 317.75414062 -225.15390625 318.63328125 -226.0703125 319.5390625 C-232.69177019 326 -232.69177019 326 -235 326 C-235.35078613 325.36835938 -235.70157227 324.73671875 -236.06298828 324.0859375 C-243.90417362 309.98348819 -251.87215997 295.9713393 -260.0390625 282.0546875 C-260.54727539 281.18166992 -261.05548828 280.30865234 -261.57910156 279.40917969 C-262.47100092 277.89693522 -263.38179578 276.39551357 -264.31933594 274.91113281 C-267.02543657 270.54757449 -267.02543657 270.54757449 -266.91196442 268.10485268 C-265.57159805 265.01123006 -263.49076253 263.46600541 -260.94763184 261.25204468 C-254.4405889 255.43628724 -248.22812691 249.34967318 -242.05529785 243.18228149 C-241.29346103 242.42194961 -241.29346103 242.42194961 -240.51623356 241.64625749 C-237.20717022 238.34324639 -233.90196738 235.03639394 -230.5977807 231.72850537 C-227.57583183 228.70427249 -224.55098025 225.68294508 -221.52651978 222.66122437 C-215.62026962 216.75939792 -209.71669799 210.85489934 -203.81411427 204.94940622 C-199.01701312 200.15003911 -194.2189276 195.35165814 -189.42015076 190.55396652 C-188.73506615 189.86903515 -188.04998155 189.18410378 -187.3441368 188.47841691 C-185.95213163 187.08673148 -184.56012422 185.69504829 -183.1681146 184.3033673 C-170.1482446 171.28634173 -157.13142916 158.26626513 -144.11567348 145.24512582 C-132.95287736 134.07785557 -121.78745226 122.91321949 -110.62011719 111.75048828 C-97.63209998 98.76782307 -84.6457069 85.78353681 -71.661901 72.79665983 C-70.27771046 71.41215076 -68.89351784 70.02764377 -67.50932312 68.64313889 C-66.82836217 67.96202366 -66.14740123 67.28090844 -65.4458051 66.57915337 C-60.65142249 61.783908 -55.85588192 56.98982256 -51.05989075 52.19618607 C-45.21921909 46.35831921 -39.38033308 40.51867343 -33.5437271 34.67674167 C-30.56712848 31.69751636 -27.58973847 28.71909365 -24.61017227 25.742836 C-21.8819809 23.01762832 -19.15611621 20.29011555 -16.43207425 17.56076042 C-15.44738264 16.57495358 -14.4618513 15.58998463 -13.47538835 14.60595031 C-8.75785564 9.89914063 -4.14169962 5.22604959 0 0 Z " fill="#D3E3E3" transform="translate(414,97)"/>
<path d="M0 0 C0.16363037 1.12035645 0.32726074 2.24071289 0.49584961 3.39501953 C2.86560701 19.47561535 5.5190862 35.50753216 8.16870117 51.54394531 C12.10115449 75.36483304 12.10115449 75.36483304 13.55444336 85.89892578 C14.42393003 91.95055298 15.47481589 97.97316009 16.5 104 C17.73335425 111.25062799 18.94863299 118.49602839 19.9609375 125.78125 C20.72124022 131.21504331 21.58626011 136.62308532 22.5078125 142.03125 C22.63939758 142.80500977 22.77098267 143.57876953 22.90655518 144.37597656 C23.44986317 147.56307553 23.99520389 150.74979957 24.54638672 153.93554688 C24.95460195 156.30005144 25.35663871 158.66554203 25.7578125 161.03125 C25.88278107 161.74381958 26.00774963 162.45638916 26.13650513 163.19055176 C26.46156167 165.12113476 26.73253975 167.06059868 27 169 C27.15049805 170.01594238 27.30099609 171.03188477 27.45605469 172.07861328 C26.75990645 176.53798683 24.12201026 178.66364453 20.9453125 181.7109375 C20.32856659 182.32393707 19.71182068 182.93693665 19.0763855 183.56851196 C17.77354935 184.85792933 16.46354978 186.14014354 15.14697266 187.41552734 C13.12513772 189.37486654 11.12560896 191.35492969 9.12890625 193.33984375 C7.86061536 194.58980147 6.59112447 195.83854301 5.3203125 197.0859375 C4.41709763 197.97640274 4.41709763 197.97640274 3.49563599 198.88485718 C-0.7656093 203 -0.7656093 203 -3 203 C-11.01131102 187.09185042 -18.90020179 171.14065591 -26.54443359 155.05224609 C-29.27971061 149.31651424 -32.04741807 143.59640572 -34.8125 137.875 C-35.40610366 136.64624817 -35.99969085 135.41748838 -36.59326172 134.1887207 C-38.0942487 131.08176669 -39.59563682 127.97500668 -41.09710693 124.86828613 C-46.06877404 114.58080352 -51.03640741 104.29138114 -56 94 C-56.85682373 92.22447754 -56.85682373 92.22447754 -57.73095703 90.41308594 C-59.3848059 86.98452457 -61.03648592 83.55492718 -62.6875 80.125 C-63.18072754 79.1030957 -63.67395508 78.08119141 -64.18212891 77.02832031 C-66.57010241 72.06140244 -68.88122863 67.08788577 -71 62 C-70.12859375 61.26136719 -69.2571875 60.52273438 -68.359375 59.76171875 C-61.8418993 54.21753661 -55.4071356 48.60938035 -49.12451172 42.80004883 C-45.795263 39.72203249 -42.41735742 36.71256308 -38.9921875 33.7421875 C-36.63979365 31.68499601 -34.31965034 29.59403085 -32 27.5 C-28.38323655 24.23609152 -24.73610392 21.01209051 -21.0625 17.8125 C-18.69035571 15.72788836 -16.34443935 13.61571356 -14 11.5 C-10.82134644 8.63577276 -7.6408543 5.77410175 -4.4375 2.9375 C-3.79683594 2.36902344 -3.15617187 1.80054688 -2.49609375 1.21484375 C-1 0 -1 0 0 0 Z " fill="#BFD6D7" transform="translate(359,204)"/>
<path d="M0 0 C2.0012032 0.54209242 3.99171666 1.12575043 5.96728516 1.75488281 C9.56201515 2.88902798 13.12707471 3.51228387 16.83837891 4.1640625 C17.99208984 4.41285156 19.14580078 4.66164062 20.33447266 4.91796875 C24.84507616 5.84771623 29.37862339 6.46165115 33.93994141 7.0859375 C49.23094035 9.21058156 64.44774394 11.88635844 79.67089844 14.44433594 C88.32147864 15.89575644 96.9765113 17.29792208 105.65087891 18.6015625 C106.81272705 18.77691528 106.81272705 18.77691528 107.99804688 18.95581055 C110.13208253 19.27686663 112.26643658 19.5957221 114.40087891 19.9140625 C124.06942002 21.3600361 133.73524394 22.82381674 143.40087891 24.2890625 C144.15590698 24.40351715 144.91093506 24.5179718 145.68884277 24.63589478 C150.00955195 25.29091654 154.33022862 25.94615237 158.65087891 26.6015625 C152.13914418 34.20855533 145.54726822 41.72988785 138.83837891 49.1640625 C136.35026204 51.93653558 133.90020427 54.74001099 131.45556641 57.55078125 C129.4212975 59.86245047 127.34865581 62.1368768 125.27587891 64.4140625 C122.20341117 67.81239802 119.26645269 71.27746773 116.40087891 74.8515625 C109.9540011 82.82473293 102.92677544 90.37665897 95.65087891 97.6015625 C95.04429443 97.29565186 94.43770996 96.98974121 93.81274414 96.67456055 C80.85241256 90.14638453 67.84508167 83.73766517 54.74072266 77.50390625 C47.98972584 74.29194406 41.25718474 71.04203676 34.52587891 67.7890625 C33.29451862 67.19416563 32.06315467 66.59927633 30.83178711 66.00439453 C28.34529831 64.80306115 25.85890519 63.60153 23.37255859 62.39990234 C17.89955042 59.75503866 12.42524326 57.11286608 6.95101929 54.47052002 C5.15992715 53.60593024 3.36890383 52.7411979 1.57788086 51.87646484 C-4.07297785 49.1481458 -9.72411713 46.42041319 -15.37619019 43.6946106 C-18.03882046 42.41047316 -20.70130068 41.12602481 -23.36376953 39.84155273 C-24.6301334 39.23072029 -25.89657037 38.62003933 -27.16308594 38.00952148 C-28.92189872 37.16168232 -30.680437 36.31327376 -32.43896484 35.46484375 C-33.93737915 34.74228394 -33.93737915 34.74228394 -35.46606445 34.00512695 C-38.43789513 32.55834445 -41.3953775 31.08487634 -44.34912109 29.6015625 C-37.13214766 12.6576984 -18.52805779 -4.16630921 0 0 Z " fill="#D3E3E4" transform="translate(149.34912109375,126.3984375)"/>
<path d="M0 0 C3.51327356 0.5820671 6.33012579 1.48956572 9.4921875 3.1171875 C10.34917236 3.55313232 11.20615723 3.98907715 12.08911133 4.43823242 C13.46812622 5.14943237 13.46812622 5.14943237 14.875 5.875 C16.87544912 6.8910041 18.87677768 7.90527817 20.87890625 8.91796875 C22.41248779 9.69406494 22.41248779 9.69406494 23.97705078 10.48583984 C28.55982081 12.78129613 33.18259594 14.9890418 37.8125 17.1875 C47.35545397 21.72587806 56.86957691 26.32122248 66.375 30.9375 C77.13765906 36.16295422 87.90955927 41.36802749 98.69897461 46.53808594 C107.11873257 50.57360349 115.52938682 54.62779316 123.9375 58.6875 C124.58126587 58.99826477 125.22503174 59.30902954 125.88830566 59.62921143 C136.62377565 64.81188783 136.62377565 64.81188783 139 66 C137.38387092 69.92355037 134.6866819 72.71394665 131.8125 75.75 C130.81051284 76.82488262 129.80920995 77.90040352 128.80859375 78.9765625 C128.32374512 79.49637695 127.83889648 80.01619141 127.33935547 80.55175781 C125.08876244 82.98531921 122.92415915 85.49115125 120.75390625 87.99609375 C117.91661579 91.23780869 115.01186217 94.41857428 112.11328125 97.60546875 C109.99127508 100.00988609 107.98279012 102.48011097 106 105 C102.54039175 103.51163783 100.29953099 101.54869995 97.64666748 98.89390564 C96.78292511 98.03435776 95.91918274 97.17480988 95.02926636 96.28921509 C94.08028638 95.33475212 93.13140667 94.38018944 92.18261719 93.42553711 C91.1775357 92.42152881 90.17202135 91.41795368 89.16610718 90.41477966 C86.43869419 87.69221077 83.71756669 84.96343836 80.99765682 82.23337626 C78.15286646 79.3798034 75.30280639 76.53150278 72.45343018 73.68251038 C67.67191651 68.90006049 62.89429076 64.11375444 58.11914062 59.32495117 C52.59086681 53.78092985 47.05736151 48.24217474 41.52084231 42.70638841 C36.20039269 37.38654804 30.88280066 32.06386143 25.56681061 26.7395649 C23.30123488 24.47045014 21.03480419 22.20219436 18.76772308 19.93458366 C16.10270618 17.26856591 13.44024123 14.60002561 10.77977371 11.92946815 C9.80020731 10.9469691 8.81978098 9.96532659 7.83845901 8.98458099 C6.50512536 7.65173437 5.17515748 6.31552321 3.84539795 4.97911072 C3.09841015 4.23044707 2.35142235 3.48178343 1.58179855 2.71043301 C0 1 0 1 0 0 Z " fill="#5688E1" transform="translate(106,157)"/>
<path d="M0 0 C4.34117871 1.31457944 8.05048034 3.00308358 11.97265625 5.2734375 C13.10944824 5.92626709 14.24624023 6.57909668 15.41748047 7.25170898 C17.8930027 8.69001364 20.36313311 10.13737472 22.83251953 11.58618164 C24.10019573 12.3276532 25.36826248 13.06845747 26.63671875 13.80859375 C27.57877167 14.35879936 27.57877167 14.35879936 28.53985596 14.92012024 C32.29237447 17.08739475 36.07730589 19.0383837 40.01953125 20.84765625 C54.7767388 27.81436365 60.34638388 37.17222324 67.31005859 51.62939453 C70.16297337 57.31956231 73.47280339 62.73433907 76.75 68.1875 C83.57974246 79.58299207 83.57974246 79.58299207 85 85 C79.7598442 80.61826976 74.86679644 76.01005098 70.04516602 71.17456055 C69.28336533 70.41451218 68.52156464 69.65446381 67.73667908 68.87138367 C65.23991382 66.37899114 62.74679001 63.88299309 60.25390625 61.38671875 C58.51527783 59.64876426 56.776501 57.91095821 55.0375824 56.17329407 C51.40567018 52.54285225 47.77556353 48.91061719 44.14672852 45.27709961 C39.48364611 40.60829475 34.81605469 35.9440275 30.1471262 31.28106976 C26.56213653 27.69968173 22.97951728 24.11593014 19.39762688 20.53144264 C17.67627407 18.80942078 15.9541727 17.08814687 14.23132515 15.36762047 C11.83482084 12.97363891 9.4415168 10.57650457 7.04907227 8.1784668 C6.33071198 7.46213074 5.61235168 6.74579468 4.8722229 6.00775146 C4.226035 5.35874374 3.57984711 4.70973602 2.91407776 4.0410614 C2.34797067 3.47457728 1.78186357 2.90809317 1.19860172 2.32444286 C0 1 0 1 0 0 Z " fill="#5789E1" transform="translate(92,335)"/>
</svg>
